<svg xmlns="http://www.w3.org/2000/svg" width="512" height="512" viewBox="0 0 512 512"><defs><style>.a{fill:#a154ff;}.a,.b{fill-rule:evenodd;}.b,.c{fill:#fff;}</style></defs><path class="a" d="M4.48,372.15,36.12,223.33a84.05,84.05,0,0,1,56.25-62.47l323.12-105c52.42-17,103.61,29.06,92.15,83l-32,150.44a83.51,83.51,0,0,1-55.87,62.05L97.62,456C44.64,473.22-7.1,426.64,4.48,372.15Z"/><path class="b" d="M75.88,415A26.39,26.39,0,0,1,50.2,383.16L82.41,231.63a39.74,39.74,0,0,1,26.52-29.46l106.4-34.57-9.58,45.07-84.34,27.4-8.86,41.68,83-26.95-9.58,45.07-83,26.95L84.53,413.57l-.41.14A26.84,26.84,0,0,1,75.88,415Z"/><path class="c" d="M214.33,168.71l-9.22,43.38-84.35,27.4-9.22,43.38,83-27-9.22,43.38-83,26.95L83.89,413h0a25.53,25.53,0,0,1-33-29.67L83.14,231.79a38.9,38.9,0,0,1,26-28.91l105.16-34.17m2-2.23-2.47.81L108.7,201.45a40.54,40.54,0,0,0-27,30L49.46,383a27.15,27.15,0,0,0,26.42,32.77,27.43,27.43,0,0,0,8.47-1.36l.82-.27.18-.85,18.26-85.9,82.14-26.69.83-.27.18-.84L196,256.22l.54-2.54-2.47.8-80.49,26.16,8.5-40,83.52-27.14.83-.26.18-.85L215.8,169l.54-2.54Z"/><polygon class="b" points="134.63 355.33 221.75 327.03 258.63 153.53 388.18 111.44 378.6 156.5 292.87 184.36 255.99 357.86 125.06 400.4 134.63 355.33"/><path class="c" d="M387.18,112.55,378,155.93l-85.73,27.85-36.88,173.5-129.29,42,9.22-43.38,87.11-28.3,36.88-173.5,127.91-41.56m2-2.23-2.47.8-127.9,41.56L258,153l-.18.85-36.7,172.65-86.29,28-.83.27-.18.84L124.59,399l-.54,2.54,2.47-.8,129.29-42,.83-.27.18-.85,36.69-172.65,84.91-27.59.82-.27.18-.84,9.22-43.38.54-2.54Z"/><path class="b" d="M330.07,211.07l38.49-12.5-18.44,86.75,43.09-14,36.88-173.5.41-.14a26.84,26.84,0,0,1,8.24-1.32,26.39,26.39,0,0,1,25.68,31.87L432.16,280a39.33,39.33,0,0,1-26.25,29.16L302.05,342.89Z"/><path class="c" d="M438.74,97.11a25.64,25.64,0,0,1,24.95,31L431.43,279.83a38.51,38.51,0,0,1-25.75,28.61L303.06,341.78l27.66-130.13,36.83-12-18.44,86.74,44.75-14.53L430.73,98.4h0a25.78,25.78,0,0,1,8-1.29m0-1.5A27.48,27.48,0,0,0,430.27,97l-.82.27-.18.85-36.7,172.65-41.45,13.47L369,200l.54-2.54-2.47.8-36.84,12-.82.26-.18.85L301.59,341.47l-.54,2.54,2.47-.81,102.62-33.34a40.11,40.11,0,0,0,26.76-29.72l32.26-151.76a27.15,27.15,0,0,0-26.42-32.77Z"/></svg>