<svg xmlns="http://www.w3.org/2000/svg" width="512" height="512"><defs><linearGradient id="a" x1="216.77" y1="109.01" x2="295.56" y2="403.08" gradientUnits="userSpaceOnUse"><stop offset="0" stop-color="#c05cff"/><stop offset=".49" stop-color="#ac4dff"/><stop offset="1" stop-color="#933bff"/></linearGradient><style>.b{fill:#fff}</style></defs><path d="m4.48 372.15 31.64-148.82a84.05 84.05 0 0 1 56.25-62.47l323.12-105c52.42-17 103.61 29.06 92.15 83l-32 150.44a83.51 83.51 0 0 1-55.87 62.05L97.62 456C44.64 473.22-7.1 426.64 4.48 372.15z" style="fill:url(#a)"/><path class="b" d="M213.87 167.29 108.7 201.45a40.54 40.54 0 0 0-27 30L49.46 383a27.15 27.15 0 0 0 26.42 32.77 27.43 27.43 0 0 0 8.47-1.36l.82-.27.18-.85 18.26-85.9 82.14-26.69.83-.27.18-.84 9.24-43.37.54-2.54-2.47.8-80.49 26.16 8.5-40 83.52-27.14.83-.26.18-.85L215.8 169l.54-2.54z"/><path class="b" d="m386.71 111.12-127.9 41.56-.82.27-.18.85-36.7 172.65-86.3 28.04-.82.26-.18.85-9.22 43.38-.54 2.54 2.47-.81 129.29-42 .82-.27.18-.85 36.7-172.65 84.91-27.59.83-.27.18-.84 9.21-43.38.55-2.54-2.48.8z"/><path class="b" d="M459.76 105.75a27 27 0 0 0-21-10.14 27.48 27.48 0 0 0-8.49 1.39l-.82.27-.18.85-36.7 172.65-41.45 13.47L369 200l.54-2.54-2.47.8-36.84 12-.82.26-.18.85-27.64 130.1-.54 2.54 2.47-.81 102.62-33.34a40.11 40.11 0 0 0 26.76-29.72l32.26-151.76a26.89 26.89 0 0 0-5.4-22.63z"/></svg>