<?xml version="1.0" encoding="utf-8"?>
<!-- Generator: Adobe Illustrator 25.2.3, SVG Export Plug-In . SVG Version: 6.00 Build 0)  -->
<svg version="1.1" id="Layer_1" xmlns="http://www.w3.org/2000/svg" xmlns:xlink="http://www.w3.org/1999/xlink" x="0px" y="0px"
	 viewBox="0 0 512 512" style="enable-background:new 0 0 512 512;" xml:space="preserve">
<g transform="translate(0.000000,512.000000) scale(0.100000,-0.100000)">
	<path d="M2297,5110c-838-96-1550-562-1965-1287C8,3256-85,2574,76,1935C230,1319,613,779,1145,425c856-569,1974-569,2830,0
		c152,101,261,190,390,320c380,379,629,856,719,1378c53,305,45,685-20,981c-185,837-772,1527-1564,1839c-179,70-362,120-566,152
		C2818,5114,2415,5123,2297,5110z M2228,938c9,6,47,27,83,46c108,57,243,152,327,231c132,124,372,409,372,442c0,7-37-13-82-43
		c-116-77-339-188-461-229c-57-19-146-40-198-46c-81-11-107-10-192,5c-133,24-141,32-146,140c-2,71,2,102,24,178
		c42,142,44,128-26,168c-65,37-119,98-119,134c0,12,14,75,30,140c17,66,30,129,30,141s-23,44-55,75c-80,79-79,89,32,231
		c23,30,44,68,48,84c6,30,6,30-14-6c-11-19-39-53-63-75c-24-21-34.8-35.4-45.4-42.2c-12.3-6.4-59.6-15.8-152.6-15.8
		c-171,0-245,58-290,228c-24,89-45,136-60,136s-12,53,5,77c22,31,96,71,162,87c70,17,221,27,201,14c-9-7-4-8,15-3c19,4,26,2,22-5
		c-3-5,1-10,10-10c8,0,45-14,82-30c64-29,67-30,87-13c24,21,36,35,36,45c0,4-45,30-101,57c-99,50-101,50-131,35c-17-9-42-28-56-42
		c-18-19-22-21-14-7c5,11,20,29,31,39c12,11,21,23,21,28c0,15-23,8-49-14c-16-15-20-16-11-5c11,15,11,20,1,26s-10,17-2,47
		c6,22,11,68,11,104c0,76,19,171,50,253c19,50,34,68,107,130c46,40,87,73,91,74c4,2,21-18,37-43c48-72,167-166,186-147
		c8,8-3,20-35,42c-69,48-66,57,4,12s69-45,141,15c77,65,118,78,225,70l93-7l73,64c40,35,75,63,77,61s-4-24-13-50c-26-76-19-94,34-94
		c10,0,63-23,118-50c96-48,170-111,203-172c9-16,5-18-33-18c-46,0-88-22-88-46c0-8,21-35,48-60c40-39,41-42,10-20
		c-78,57-41,4,83-120c216-215,251-276,254-447c1-58,6-102,13-109c9-9,24-6,63,12c39,19,63,41,107,99c32,41,86,98,121,125
		c56,44,71,51,109,51c36,0,48-5,72-32c16-17,36-57,46-87c15-48,16-66,6-128c-19-123-49-203-107-286c-30-42-69-101-86-130
		c-42-71-89-101-170-110l-64-7l-13-100c-8-55-14-181-15-280c-1-189,13-277,64-408c29-72,25-96-30-173c-112-161-338-319-508-358
		c-100-22-284-21-394,3c-126,28-227.4,69.4-262.4,107.4"/>
	<path d="M2581,3206c-30-32-139-71-276-99c-108-22-110-23-142-65c-18-24-33-41-33-37c0,14-58-36-63-55c-5-18,0-16,33,10
		c21,16,41,30,45,30c5,0,31,11,59,25c91,44,170,59,306,58c139-1,142-1,222-28c32-10,61-16,64-12c11,10-26,103-50,126
		c-27,26-36,19-36-29c0-21-6-43-14-49c-17-15-28-1-15,19c12,20,12,100-1,100c-5,0-10-11-10-25c0-28-27-101-35-93c-2,2-1,28,4,57
		c5,30,6,62,4,72C2636,3237,2608,3235,2581,3206z"/>
	<path d="M1845,2961c-3-6,3-15,14-20c28-16,33-14,21,9C1868,2972,1855,2976,1845,2961z"/>
</g>
</svg>
