

<svg id="Layer_1" data-name="Layer 1" xmlns="http://www.w3.org/2000/svg" viewBox="0 0 400 400"><defs><style>.cls-1{fill:#aaa;}</style></defs><title>Artboard 1</title><path class="cls-1" d="M143.71,194.81a18.58,18.58,0,0,0-1.39,1.57c-.33-.4-.66-.79-1-1.17a19.15,19.15,0,0,0-27.57,0,20.36,20.36,0,0,0,0,28.29,19.17,19.17,0,0,0,1.64,1.49l23.18,23.18a5.08,5.08,0,0,0,7.21,0l23.74-23.74a19,19,0,0,0,1.79-1.59,20,20,0,0,0,0-28A19.25,19.25,0,0,0,143.71,194.81Z"/><path class="cls-1" d="M318.05,125H132V108H270.3a12.32,12.32,0,0,0,12,9.65h23.34a12.33,12.33,0,1,0,0-24.65h-211A10.63,10.63,0,0,0,84,103.63V125H82A27,27,0,0,0,55,152v128.1A27,27,0,0,0,82,307h236.1A27,27,0,0,0,345,280.05V152A27,27,0,0,0,318.05,125ZM142.5,273A56.5,56.5,0,1,1,199,216.5,56.51,56.51,0,0,1,142.5,273Zm89-70.48,27-27A7.38,7.38,0,1,1,269,185.92l-27,27a7.38,7.38,0,1,1-10.44-10.43ZM235,254a7.39,7.39,0,0,1,0-10.44L299.56,179A7.38,7.38,0,0,1,310,189.44L245.44,254A7.39,7.39,0,0,1,235,254Zm78.52-23.52-27,27a7.38,7.38,0,0,1-10.43,0h0a7.37,7.37,0,0,1,0-10.44l27-27a7.38,7.38,0,0,1,10.44,10.43Z"/></svg>