<svg xmlns="http://www.w3.org/2000/svg" width="512" height="512" viewBox="0 0 512 512"><defs><style>.a{fill:#a154ff;}.a,.b{fill-rule:evenodd;}.b,.c{fill:#fff;}</style></defs><path class="a" d="M20,432.49V270.63a89.43,89.43,0,0,1,44.71-77.44l313-180.72C428.5-16.85,492,19.8,492,78.42V242A88.8,88.8,0,0,1,447.56,319l-312.1,180.2C84.14,528.77,20,491.74,20,432.49Z"/><path class="b" d="M98.08,461.86a28.06,28.06,0,0,1-28-28V269a42.23,42.23,0,0,1,21.07-36.48l103-59.47V222l-81.7,47.17V314.6l80.36-46.4v48.91l-80.36,46.4v94.34l-.38.22A27.65,27.65,0,0,1,98.08,461.86Z"/><path class="c" d="M193.36,174.38v47.17l-81.7,47.18V315.9L192,269.5v47.17l-80.36,46.4v94.35h0A27.18,27.18,0,0,1,70.8,433.83V269A41.38,41.38,0,0,1,91.49,233.2l101.87-58.82m1.5-2.6-2.25,1.3L90.74,231.9A43,43,0,0,0,69.3,269v164.8a28.69,28.69,0,0,0,43.11,24.89l.75-.43V363.94l79.61-46,.75-.43V266.9l-2.25,1.3-78.11,45.1V269.59l81-46.74.75-.43V171.78Z"/><polygon class="b" points="151.76 386.23 236.15 337.51 236.15 148.81 361.55 76.41 361.55 125.32 278.5 173.26 278.5 361.96 151.76 435.13 151.76 386.23"/><path class="c" d="M360.8,77.71v47.17l-83.05,48v188.7l-125.24,72.3V386.66l84.39-48.72V149.24L360.8,77.71m1.5-2.6-2.25,1.3L236.15,148l-.75.43V337.07l-83.64,48.29-.75.43v50.64l2.25-1.3L278.5,362.82l.75-.43V173.7l82.3-47.52.75-.43V75.11Z"/><path class="b" d="M323.22,192.89l37.18-21.47v94.35l41.84-24.16V52.92l.38-.22a27.62,27.62,0,0,1,13.95-3.79,28.06,28.06,0,0,1,28,28V242a41.81,41.81,0,0,1-20.85,36.11l-100.53,58Z"/><path class="c" d="M416.57,49.66a27.27,27.27,0,0,1,27.28,27.28V242a40.94,40.94,0,0,1-20.48,35.46L324,334.84V193.32l35.68-20.6v94.35L403,242V53.35h0a27.08,27.08,0,0,1,13.58-3.69m0-1.5a28.34,28.34,0,0,0-14.33,3.89l-.75.43v188.7l-40.34,23.29V170.12l-2.25,1.3L323.22,192l-.75.44v145l2.25-1.3,99.4-57.39A42.57,42.57,0,0,0,445.35,242v-165a28.81,28.81,0,0,0-28.78-28.78Z"/></svg>